<?xml version="1.0" standalone="no"?>
<!DOCTYPE svg PUBLIC "-//W3C//DTD SVG 20010904//EN"
 "http://www.w3.org/TR/2001/REC-SVG-20010904/DTD/svg10.dtd">
<svg version="1.0" xmlns="http://www.w3.org/2000/svg"
 width="1200.000000pt" height="627.000000pt" viewBox="0 0 1200.000000 627.000000"
 preserveAspectRatio="xMidYMid meet">

<g transform="translate(0.000000,627.000000) scale(0.100000,-0.100000)"
fill="#000000" stroke="none">
<path d="M1652 4270 c-213 -29 -368 -160 -430 -365 -13 -42 -16 -143 -19 -595
-3 -300 -1 -560 2 -579 5 -28 8 -31 18 -18 17 22 125 70 142 63 8 -3 15 -1 15
5 0 6 5 7 10 4 6 -3 10 0 10 7 0 9 3 9 10 -2 9 -13 14 -7 11 12 -2 13 21 4 41
-14 10 -10 19 -28 20 -40 1 -13 5 164 8 392 4 284 10 432 19 470 44 185 162
306 351 357 57 16 114 18 480 18 454 0 484 -3 600 -58 114 -54 193 -151 237
-292 16 -54 18 -101 18 -500 0 -486 -1 -492 -67 -617 -57 -107 -176 -192 -306
-219 -64 -13 -76 -23 -43 -34 48 -15 161 -174 161 -226 0 -27 23 -39 75 -39
195 0 373 130 447 326 l23 59 0 750 0 750 -23 59 c-60 159 -175 265 -339 313
-52 15 -131 17 -733 19 -371 1 -703 -2 -738 -6z"/>
<path d="M4127 3978 c-111 -60 -227 -209 -277 -354 -26 -75 -26 -184 -1 -240
26 -57 75 -109 125 -133 81 -40 96 -20 49 65 -23 42 -28 63 -31 145 -5 112 12
190 62 294 33 66 99 145 111 133 10 -10 5 -1101 -6 -1168 -5 -36 -17 -87 -25
-113 -26 -77 3 -86 85 -27 49 36 87 94 115 175 19 57 21 88 24 614 2 305 1
565 -2 577 -8 29 -80 64 -132 64 -24 0 -61 -12 -97 -32z"/>
<path d="M6055 3994 c-4 -11 -10 -72 -12 -136 l-6 -117 -101 -3 -101 -3 -13
-40 c-7 -22 -10 -50 -7 -62 5 -21 11 -22 108 -25 l102 -3 3 -209 c2 -189 0
-216 -18 -271 -23 -68 -64 -138 -101 -172 l-25 -22 0 52 c-2 91 -40 143 -186
253 l-98 75 30 45 c99 142 73 242 -57 221 -75 -13 -146 -90 -159 -174 -5 -36
-2 -53 19 -93 l26 -50 -66 -118 c-150 -268 -197 -317 -224 -235 -9 28 -10 104
-6 298 8 297 10 288 -73 330 -141 71 -247 -20 -351 -303 l-44 -117 -3 207 -2
206 -44 17 c-23 9 -58 15 -77 13 l-34 -3 0 -403 0 -404 28 -24 c28 -24 97 -33
123 -16 6 4 21 56 33 115 45 227 141 462 226 554 l44 48 -6 -265 c-6 -286 0
-352 40 -412 24 -35 71 -54 109 -45 44 11 115 67 160 124 24 32 82 121 128
198 46 77 89 148 96 158 11 17 17 13 78 -44 84 -78 118 -134 118 -193 0 -113
-71 -146 -172 -81 -30 19 -63 35 -72 35 -24 0 -70 -64 -71 -101 -2 -41 28 -63
113 -85 202 -51 378 34 483 234 l35 65 12 -59 c37 -180 124 -271 238 -249 46
8 122 81 159 150 15 30 30 55 33 55 4 0 12 -17 19 -37 35 -96 126 -173 205
-173 82 0 177 52 223 121 31 47 39 48 46 10 13 -62 102 -130 171 -131 52 0
114 38 151 93 19 29 35 46 35 39 0 -22 74 -95 115 -113 79 -37 174 -15 254 57
l49 44 7 -30 c6 -29 -2 -39 -153 -188 -181 -178 -212 -225 -212 -322 0 -100
57 -167 166 -195 95 -24 173 -2 247 70 85 83 108 169 114 434 l5 204 54 66
c95 118 182 275 264 479 9 20 16 22 81 22 62 0 70 -2 65 -17 -4 -9 -14 -61
-23 -117 -19 -123 -13 -288 13 -361 38 -107 156 -183 244 -156 47 14 95 53
116 93 l15 29 28 -38 c33 -46 63 -67 118 -83 89 -27 208 24 270 113 27 40 34
46 39 30 32 -103 119 -166 209 -149 39 8 110 65 120 97 11 32 25 21 25 -19 0
-59 26 -77 111 -77 47 0 72 4 78 13 4 8 11 74 15 149 5 89 15 167 31 229 26
103 83 245 101 251 7 2 13 -42 18 -137 12 -255 37 -384 82 -419 30 -24 115
-29 131 -8 6 6 13 53 17 102 8 113 44 276 86 380 17 44 35 83 38 87 4 4 8 -75
9 -175 1 -204 17 -303 58 -373 27 -46 81 -88 128 -99 110 -27 209 85 211 240
1 64 -1 70 -19 70 -15 0 -23 -11 -33 -45 -28 -95 -45 -131 -68 -147 -22 -14
-26 -14 -50 2 -54 35 -59 64 -62 375 -2 199 -7 289 -15 299 -20 24 -110 61
-148 61 -22 0 -42 -7 -51 -17 -24 -27 -86 -201 -115 -321 -14 -59 -28 -114
-31 -122 -9 -22 -19 106 -21 245 -1 73 -6 129 -14 144 -22 44 -63 66 -124 66
-54 0 -57 -2 -77 -35 -12 -19 -42 -96 -68 -170 l-47 -135 0 148 c-1 131 -3
149 -20 166 -23 23 -127 39 -143 23 -7 -7 -13 -117 -18 -299 -6 -281 -7 -289
-32 -343 -49 -106 -111 -130 -153 -60 -19 33 -20 52 -21 349 -2 343 2 322 -64
341 -70 20 -110 8 -110 -33 0 -16 -5 -14 -37 13 -110 97 -247 71 -334 -63 -70
-109 -83 -165 -85 -378 -2 -196 -10 -235 -53 -259 -50 -26 -86 -7 -118 65 -28
63 -23 268 9 412 14 61 23 123 21 137 -12 62 -71 74 -220 43 l-73 -15 0 45 c0
34 -6 50 -26 70 -22 22 -32 25 -70 20 -51 -5 -81 -27 -100 -74 -21 -50 -17
-96 12 -139 l26 -38 -17 -56 c-27 -86 -72 -184 -128 -279 l-52 -86 -3 292 c-2
291 -2 293 -25 307 -28 19 -90 30 -121 22 -15 -4 -26 -16 -31 -33 -6 -24 -8
-26 -18 -13 -29 39 -87 71 -136 77 -128 15 -232 -88 -287 -284 -12 -42 -17
-104 -19 -223 -2 -170 -6 -191 -48 -237 -20 -23 -61 -30 -84 -15 -7 4 -20 26
-30 47 -16 36 -18 73 -18 344 l0 305 -40 18 c-73 32 -135 20 -135 -26 0 -18
-4 -16 -32 12 -92 88 -212 81 -304 -19 -74 -81 -110 -183 -124 -354 -10 -130
-38 -202 -100 -267 -29 -30 -55 -49 -65 -46 -25 4 -55 48 -65 94 -11 46 -13
377 -3 552 l6 122 118 0 118 0 16 30 c19 38 19 76 -1 84 -9 3 -37 6 -62 6 -26
0 -77 3 -114 7 l-68 6 0 117 0 118 -42 17 c-23 9 -63 19 -88 22 -40 5 -48 2
-55 -13z m799 -575 c41 -32 58 -83 63 -194 7 -133 -9 -234 -50 -314 -41 -81
-87 -112 -135 -92 -68 28 -97 128 -89 311 6 154 25 220 77 272 45 45 91 51
134 17z m830 -9 c36 -44 46 -90 46 -221 0 -184 -42 -316 -114 -360 -41 -25
-59 -24 -95 6 -48 41 -66 109 -66 255 1 159 27 254 85 312 31 31 45 38 78 38
33 0 45 -6 66 -30z m1416 2 c42 -43 55 -100 55 -242 -1 -164 -26 -254 -90
-317 -48 -48 -78 -54 -118 -23 -49 39 -62 98 -62 275 1 144 3 166 25 220 31
79 69 115 122 115 30 0 46 -7 68 -28z m-1360 -1072 c-22 -125 -71 -190 -143
-190 -44 0 -87 49 -87 98 0 83 43 160 169 301 l66 74 3 -109 c2 -60 -2 -138
-8 -174z"/>
<path d="M1921 3819 c-75 -13 -129 -40 -174 -85 -88 -89 -97 -140 -96 -559 1
-290 11 -510 19 -420 1 17 2 35 1 41 -2 20 54 70 97 86 27 11 40 12 36 5 -5
-8 -2 -8 7 1 14 13 33 17 26 5 -3 -5 11 -8 30 -9 19 0 38 -5 41 -10 4 -6 22
-16 41 -24 19 -8 57 -29 85 -48 l51 -35 -53 56 c-189 201 -163 502 56 666 80
61 163 84 280 79 84 -3 106 -8 165 -37 174 -83 277 -274 248 -459 -40 -258
-296 -432 -541 -368 -30 8 -57 13 -58 11 -2 -2 16 -9 40 -15 23 -7 66 -19 93
-28 28 -9 59 -17 70 -19 11 -2 27 -6 35 -10 8 -3 21 -7 28 -9 29 -6 86 -42 96
-60 6 -10 14 -21 17 -24 10 -8 16 -80 6 -80 -4 0 -6 -4 -2 -9 3 -5 -3 -12 -12
-15 -10 -3 38 -3 107 0 185 8 271 45 327 142 49 82 53 126 53 547 0 289 -4
405 -14 446 -27 115 -94 191 -200 226 -44 14 -107 17 -451 19 -220 1 -424 -2
-454 -7z m938 -145 c29 -21 52 -74 44 -105 -8 -34 -50 -76 -81 -82 -97 -19
-162 104 -93 174 34 34 92 40 130 13z"/>
<path d="M2285 3411 c-94 -24 -182 -104 -206 -188 -55 -189 76 -366 271 -366
158 0 274 118 274 278 0 153 -103 266 -255 279 -30 3 -67 2 -84 -3z"/>
</g>
</svg>
