<?xml version="1.0" encoding="utf-8"?>
<!-- Generator: Adobe Illustrator 23.0.4, SVG Export Plug-In . SVG Version: 6.00 Build 0)  -->
<svg version="1.1" id="Layer_1" xmlns="http://www.w3.org/2000/svg" xmlns:xlink="http://www.w3.org/1999/xlink" x="0px" y="0px"
	 viewBox="0 0 72 72" style="enable-background:new 0 0 72 72;" xml:space="preserve">
<style type="text/css">
	.st0{fill:url(#SVGID_1_);}
	.st1{fill:#FFFFFF;}
</style>
<g id="Twitter">
	
		<linearGradient id="SVGID_1_" gradientUnits="userSpaceOnUse" x1="36" y1="74" x2="36" y2="2" gradientTransform="matrix(1 0 0 -1 0 74)">
		<stop  offset="0" style="stop-color:#F79810"/>
		<stop  offset="1" style="stop-color:#F8310E"/>
	</linearGradient>
	<rect class="st0" width="72" height="72"/>
</g>
<g id="Guides">
</g>
<path class="st1" d="M18.4,37.5c-0.1,0-0.1,0.1-0.1,0.1l-0.3,2l0.3,2c0,0.1,0.1,0.1,0.1,0.1c0.1,0,0.1-0.1,0.1-0.1l0,0l0,0l0.3-2
	l-0.3-2C18.5,37.5,18.5,37.5,18.4,37.5L18.4,37.5z M19.9,36.5c0-0.1-0.1-0.1-0.1-0.1c-0.1,0-0.1,0.1-0.1,0.1l-0.4,3.2l0.4,3.2
	c0,0.1,0.1,0.1,0.1,0.1c0.1,0,0.1-0.1,0.1-0.1l0.4-3.2L19.9,36.5L19.9,36.5z M25.5,33.5c-0.1,0-0.3,0.1-0.3,0.3l-0.3,5.9l0.3,3.8
	c0,0.2,0.1,0.3,0.3,0.3c0.1,0,0.3-0.1,0.3-0.3l0,0l0.3-3.8l-0.3-5.9C25.7,33.5,25.6,33.5,25.5,33.5z M22.6,35.5
	c-0.1,0-0.2,0.1-0.2,0.2L22,39.7l0.3,3.8c0,0.1,0.1,0.2,0.2,0.2s0.2-0.1,0.2-0.2l0.4-3.8l-0.4-3.9C22.8,35.7,22.7,35.5,22.6,35.5z
	 M28.4,43.8c0.2,0,0.3-0.1,0.3-0.3l0.3-3.8l-0.3-7.9c0-0.2-0.2-0.3-0.3-0.3c-0.2,0-0.3,0.1-0.3,0.3l-0.2,7.9l0.2,3.8
	C28.1,43.7,28.2,43.8,28.4,43.8z M34.4,43.9c0.2,0,0.5-0.2,0.5-0.5l0,0l0,0l0.2-3.7l-0.2-9.1c0-0.3-0.2-0.5-0.5-0.5
	c-0.2,0-0.5,0.2-0.5,0.5l-0.2,9.1l0.2,3.7C33.9,43.7,34.2,43.9,34.4,43.9z M31.4,43.8c0.2,0,0.4-0.2,0.4-0.4l0,0l0.2-3.7l-0.2-8
	c0-0.2-0.2-0.4-0.4-0.4c-0.2,0-0.4,0.2-0.4,0.4l-0.2,8l0.2,3.7C31,43.7,31.2,43.8,31.4,43.8L31.4,43.8z M24,43.8
	c0.1,0,0.2-0.1,0.2-0.2l0.3-3.8L24.2,36c0-0.1-0.1-0.2-0.2-0.2s-0.2,0.1-0.2,0.2l-0.3,3.7l0.3,3.8C23.8,43.7,23.9,43.8,24,43.8z
	 M21.2,43.5c0.1,0,0.2-0.1,0.2-0.2l0.4-3.7l-0.4-3.8c0-0.1-0.1-0.2-0.2-0.2S21,35.7,21,35.8l-0.3,3.8l0.3,3.7
	C21,43.5,21.1,43.5,21.2,43.5L21.2,43.5z M32.9,31.5c-0.2,0-0.4,0.2-0.4,0.4l-0.2,7.7l0.2,3.7c0,0.2,0.2,0.4,0.4,0.4
	s0.4-0.2,0.4-0.4l0,0l0.2-3.7L33.3,32C33.3,31.8,33.1,31.5,32.9,31.5L32.9,31.5z M26.9,43.9c0.2,0,0.3-0.1,0.3-0.3l0.3-3.8l-0.3-7.3
	c0-0.2-0.1-0.3-0.3-0.3c-0.2,0-0.3,0.1-0.3,0.3l-0.3,7.3l0.3,3.8C26.6,43.7,26.8,43.9,26.9,43.9z M30.2,43.5L30.2,43.5l0.3-3.8
	l-0.3-8.2c0-0.2-0.2-0.4-0.4-0.4c-0.2,0-0.4,0.2-0.4,0.4l-0.2,8.2l0.2,3.8c0,0.2,0.2,0.4,0.4,0.4C30.1,43.9,30.2,43.7,30.2,43.5
	L30.2,43.5L30.2,43.5z M49.6,35c-0.6,0-1.2,0.1-1.7,0.3c-0.4-4-3.7-7.1-7.8-7.1c-1,0-2,0.2-2.8,0.5c-0.3,0.1-0.4,0.3-0.4,0.5v14.1
	c0,0.3,0.2,0.5,0.5,0.5c0,0,12.2,0,12.3,0c2.4,0,4.4-2,4.4-4.4C54,37,52,35,49.6,35L49.6,35z M35.9,29.2c-0.3,0-0.5,0.2-0.5,0.5
	l-0.2,10l0.2,3.6c0,0.3,0.2,0.5,0.5,0.5s0.5-0.2,0.5-0.5l0,0l0.2-3.6l-0.2-10C36.4,29.5,36.2,29.2,35.9,29.2L35.9,29.2z"/>
</svg>
